# Blender v2.77 (sub 0) OBJ File: 'lanceman.blend'
# www.blender.org
mtllib lanceman.mtl
o Cone
v 0.662872 5.838717 -0.052889
v -0.780335 5.741588 -0.052889
v 0.662872 5.838717 -0.374254
v -0.780335 5.741588 -0.374254
v 0.641293 6.159356 -0.052889
v -0.801914 6.062228 -0.052889
v 0.641293 6.159356 -0.374254
v -0.801914 6.062228 -0.374254
v 0.145238 4.947488 -0.792432
v -0.439909 5.285439 -0.631860
v 0.235567 5.403227 -0.521180
v 0.054909 4.967499 -0.262456
v 0.274154 4.689759 -0.708459
v -0.932381 5.386593 -0.377370
v 0.460406 5.629463 -0.149155
v 0.087902 4.731019 0.384319
v 0.025474 0.015869 -0.196179
v 0.025474 3.151791 -0.196179
v 0.063717 0.015869 -0.192412
v 0.063717 3.151791 -0.192412
v 0.100492 0.015869 -0.181257
v 0.100492 3.151791 -0.181257
v 0.134383 0.015869 -0.163142
v 0.134383 3.151791 -0.163142
v 0.164088 0.015869 -0.138763
v 0.164088 3.151791 -0.138763
v 0.188467 0.015869 -0.109057
v 0.188467 3.151791 -0.109057
v 0.206583 0.015869 -0.075166
v 0.206583 3.151791 -0.075166
v 0.217738 0.015869 -0.038392
v 0.217738 3.151791 -0.038392
v 0.221505 0.015869 -0.000148
v 0.221505 3.151791 -0.000148
v 0.217738 0.015869 0.038096
v 0.217738 3.151791 0.038096
v 0.206583 0.015869 0.074870
v 0.206583 3.151791 0.074870
v 0.188467 0.015869 0.108761
v 0.188467 3.151791 0.108761
v 0.164088 0.015869 0.138467
v 0.164088 3.151791 0.138467
v 0.134383 0.015869 0.162846
v 0.134383 3.151791 0.162846
v 0.100491 0.015869 0.180961
v 0.100491 3.151791 0.180961
v 0.063717 0.015869 0.192116
v 0.063717 3.151791 0.192116
v 0.025474 0.015869 0.195883
v 0.025474 3.151791 0.195883
v -0.012770 0.015869 0.192116
v -0.012770 3.151791 0.192116
v -0.049544 0.015869 0.180961
v -0.049544 3.151791 0.180961
v -0.083435 0.015869 0.162845
v -0.083435 3.151791 0.162845
v -0.113141 0.015869 0.138467
v -0.113141 3.151791 0.138467
v -0.137520 0.015869 0.108761
v -0.137520 3.151791 0.108761
v -0.155635 0.015869 0.074870
v -0.155635 3.151791 0.074870
v -0.166790 0.015869 0.038095
v -0.166790 3.151791 0.038095
v -0.170557 0.015869 -0.000148
v -0.170557 3.151791 -0.000148
v -0.166790 0.015869 -0.038392
v -0.166790 3.151791 -0.038392
v -0.155635 0.015869 -0.075166
v -0.155635 3.151791 -0.075166
v -0.137520 0.015869 -0.109057
v -0.137520 3.151791 -0.109057
v -0.113141 0.015869 -0.138763
v -0.113141 3.151791 -0.138763
v -0.083435 0.015869 -0.163142
v -0.083435 3.151791 -0.163142
v -0.049544 0.015869 -0.181257
v -0.049544 3.151791 -0.181257
v -0.012770 0.015869 -0.192412
v -0.012770 3.151791 -0.192412
v -0.290690 1.487222 -0.594298
v -0.014546 7.330977 0.072374
v -0.155322 1.487222 -0.635361
v 0.707054 1.487222 0.072374
v 0.693189 1.487222 0.213151
v 0.652125 1.487222 0.348518
v 0.585442 1.487222 0.473273
v 0.495702 1.487222 0.582622
v 0.386353 1.487222 0.672362
v 0.261598 1.487222 0.739045
v 0.126231 1.487222 0.780108
v -0.014546 1.487222 0.793974
v -0.155324 1.487222 0.780108
v -0.290691 1.487222 0.739045
v -0.415446 1.487222 0.672362
v -0.524795 1.487222 0.582622
v -0.614535 1.487222 0.473273
v -0.681218 1.487222 0.348517
v -0.722281 1.487222 0.213150
v -0.736146 1.487222 0.072373
v -0.730120 1.487222 0.072373
v -0.716370 1.487222 0.211974
v -0.675650 1.487222 0.346211
v -0.609524 1.487222 0.469925
v -0.520534 1.487222 0.578360
v -0.412098 1.487222 0.667351
v -0.288385 1.487222 0.733477
v -0.154148 1.487222 0.774198
v -0.014546 1.487222 0.787947
v 0.125055 1.487222 0.774198
v 0.259292 1.487222 0.733478
v 0.383005 1.487222 0.667351
v 0.491441 1.487222 0.578361
v 0.580432 1.487222 0.469925
v 0.646558 1.487222 0.346212
v 0.687278 1.487222 0.211975
v 0.701028 1.487222 0.072374
v -0.014546 1.487222 -0.649227
v 0.126231 1.487222 -0.635361
v 0.261598 1.487222 -0.594298
v 0.386353 1.487222 -0.527615
v 0.495702 1.487222 -0.437875
v 0.585442 1.487222 -0.328526
v 0.652125 1.487222 -0.203771
v 0.693189 1.487222 -0.068404
v 0.687278 1.487222 -0.067228
v 0.646558 1.487222 -0.201465
v 0.580432 1.487222 -0.325178
v 0.491441 1.487222 -0.433613
v 0.383005 1.487222 -0.522604
v 0.259292 1.487222 -0.588730
v 0.125055 1.487222 -0.629451
v -0.014546 1.487222 -0.643200
v -0.154147 1.487222 -0.629451
v -0.288383 1.487222 -0.588731
v -0.412097 1.487222 -0.522605
v -0.520533 1.487222 -0.433614
v -0.609523 1.487222 -0.325179
v -0.675650 1.487222 -0.201465
v -0.716370 1.487222 -0.067229
v -0.722281 1.487222 -0.068404
v -0.681217 1.487222 -0.203772
v -0.614534 1.487222 -0.328527
v -0.524794 1.487222 -0.437875
v -0.415445 1.487222 -0.527616
v -0.014546 2.563273 0.072374
vn 0.0000 -0.6857 -0.7279
vn 0.0000 0.6857 -0.7279
vn 0.1420 0.6857 -0.7139
vn 0.1420 -0.6857 -0.7139
vn 0.2785 0.6857 -0.6725
vn 0.2785 -0.6857 -0.6725
vn 0.4044 0.6857 -0.6052
vn 0.4044 -0.6857 -0.6052
vn 0.5147 0.6857 -0.5147
vn 0.5147 -0.6857 -0.5147
vn 0.6052 0.6857 -0.4044
vn 0.6052 -0.6857 -0.4044
vn 0.6725 0.6857 -0.2785
vn 0.6725 -0.6857 -0.2785
vn 0.7139 0.6857 -0.1420
vn 0.7139 -0.6857 -0.1420
vn 0.7279 0.6857 0.0000
vn 0.7279 -0.6857 0.0000
vn 0.7139 0.6857 0.1420
vn 0.7139 -0.6857 0.1420
vn 0.6725 0.6857 0.2785
vn 0.6725 -0.6857 0.2785
vn 0.6052 0.6857 0.4044
vn 0.6052 -0.6857 0.4044
vn 0.5147 0.6857 0.5147
vn 0.5147 -0.6857 0.5147
vn 0.4044 0.6857 0.6052
vn 0.4044 -0.6857 0.6052
vn 0.2785 0.6857 0.6725
vn 0.2785 -0.6857 0.6725
vn 0.1420 0.6857 0.7139
vn 0.1420 -0.6857 0.7139
vn 0.0000 0.6857 0.7279
vn 0.0000 -0.6857 0.7279
vn -0.1420 0.6857 0.7139
vn -0.1420 -0.6857 0.7139
vn -0.2785 0.6857 0.6725
vn -0.2785 -0.6857 0.6725
vn -0.4044 0.6857 0.6052
vn -0.4044 -0.6857 0.6052
vn -0.5147 0.6857 0.5147
vn -0.5147 -0.6857 0.5147
vn -0.6052 0.6857 0.4044
vn -0.6052 -0.6857 0.4044
vn -0.6725 0.6857 0.2785
vn -0.6725 -0.6857 0.2785
vn -0.7139 0.6857 0.1420
vn -0.7139 -0.6857 0.1420
vn -0.7279 0.6857 0.0000
vn -0.7279 -0.6857 0.0000
vn -0.7139 0.6857 -0.1420
vn -0.7139 -0.6857 -0.1420
vn -0.6725 0.6857 -0.2785
vn -0.6725 -0.6857 -0.2785
vn -0.6052 0.6857 -0.4044
vn -0.6052 -0.6857 -0.4044
vn -0.5147 0.6857 -0.5147
vn -0.5147 -0.6857 -0.5147
vn -0.4044 0.6857 -0.6052
vn -0.4044 -0.6857 -0.6052
vn -0.2785 0.6857 -0.6725
vn -0.2785 -0.6857 -0.6725
vn -0.1420 0.6857 -0.7139
vn -0.1420 -0.6857 -0.7139
vn -0.2940 -0.6400 -0.7099
vn 0.0000 1.0000 0.0000
vn -0.1499 -0.6400 -0.7536
vn 0.7683 -0.6400 0.0000
vn 0.7536 -0.6400 0.1499
vn 0.7099 -0.6400 0.2940
vn 0.6388 -0.6400 0.4269
vn 0.5433 -0.6400 0.5433
vn 0.4269 -0.6400 0.6388
vn 0.2940 -0.6400 0.7099
vn 0.1499 -0.6400 0.7536
vn 0.0000 -0.6400 0.7684
vn -0.1499 -0.6400 0.7536
vn -0.2940 -0.6400 0.7099
vn -0.4269 -0.6400 0.6388
vn -0.5433 -0.6400 0.5433
vn -0.6388 -0.6400 0.4269
vn -0.7099 -0.6400 0.2940
vn -0.7536 -0.6400 0.1499
vn -0.7683 -0.6400 0.0000
vn 0.4488 -0.8936 0.0000
vn 0.4693 -0.8781 -0.0933
vn 0.4421 -0.8781 -0.1831
vn 0.3978 -0.8781 -0.2658
vn 0.3383 -0.8781 -0.3383
vn 0.2658 -0.8781 -0.3978
vn 0.1831 -0.8781 -0.4421
vn 0.0933 -0.8781 -0.4693
vn 0.0000 -0.8781 -0.4785
vn -0.0933 -0.8781 -0.4693
vn -0.1831 -0.8781 -0.4421
vn -0.2658 -0.8781 -0.3978
vn -0.3383 -0.8781 -0.3383
vn -0.3978 -0.8781 -0.2658
vn -0.4421 -0.8781 -0.1831
vn -0.4693 -0.8781 -0.0933
vn -0.4488 -0.8936 0.0000
vn 0.0000 -0.6400 -0.7683
vn 0.1499 -0.6400 -0.7536
vn 0.2940 -0.6400 -0.7099
vn 0.4269 -0.6400 -0.6388
vn 0.5433 -0.6400 -0.5433
vn 0.6388 -0.6400 -0.4269
vn 0.7099 -0.6400 -0.2940
vn 0.7536 -0.6400 -0.1499
vn -0.4693 -0.8781 0.0933
vn -0.4421 -0.8781 0.1831
vn -0.3978 -0.8781 0.2658
vn -0.3383 -0.8781 0.3383
vn -0.2658 -0.8781 0.3978
vn -0.1831 -0.8781 0.4421
vn -0.0933 -0.8781 0.4693
vn 0.0000 -0.8781 0.4785
vn 0.0933 -0.8781 0.4693
vn 0.1831 -0.8781 0.4421
vn 0.2658 -0.8781 0.3978
vn 0.3383 -0.8781 0.3383
vn 0.3978 -0.8781 0.2658
vn 0.4421 -0.8781 0.1831
vn 0.4693 -0.8781 0.0933
vn -0.7536 -0.6400 -0.1499
vn -0.7099 -0.6400 -0.2940
vn -0.6388 -0.6400 -0.4269
vn -0.5433 -0.6400 -0.5433
vn -0.4269 -0.6400 -0.6388
vn 0.0000 -1.0000 0.0000
vn 0.0671 -0.9977 0.0000
vn 0.0000 0.0000 -1.0000
vn -0.0671 0.9977 0.0000
vn 0.0000 0.0000 1.0000
vn 0.9977 0.0671 0.0000
vn -0.9977 -0.0671 0.0000
vn -0.2285 0.5653 0.7926
vn 0.0537 0.5028 -0.8627
vn -0.5106 -0.8581 -0.0546
vn 0.9419 -0.2887 0.1714
usemtl Material.002
s 1
f 17//1 18//2 20//3 19//4
f 19//4 20//3 22//5 21//6
f 21//6 22//5 24//7 23//8
f 23//8 24//7 26//9 25//10
f 25//10 26//9 28//11 27//12
f 27//12 28//11 30//13 29//14
f 29//14 30//13 32//15 31//16
f 31//16 32//15 34//17 33//18
f 33//18 34//17 36//19 35//20
f 35//20 36//19 38//21 37//22
f 37//22 38//21 40//23 39//24
f 39//24 40//23 42//25 41//26
f 41//26 42//25 44//27 43//28
f 43//28 44//27 46//29 45//30
f 45//30 46//29 48//31 47//32
f 47//32 48//31 50//33 49//34
f 49//34 50//33 52//35 51//36
f 51//36 52//35 54//37 53//38
f 53//38 54//37 56//39 55//40
f 55//40 56//39 58//41 57//42
f 57//42 58//41 60//43 59//44
f 59//44 60//43 62//45 61//46
f 61//46 62//45 64//47 63//48
f 63//48 64//47 66//49 65//50
f 65//50 66//49 68//51 67//52
f 67//52 68//51 70//53 69//54
f 69//54 70//53 72//55 71//56
f 71//56 72//55 74//57 73//58
f 73//58 74//57 76//59 75//60
f 75//60 76//59 78//61 77//62
f 20//3 18//2 80//63 78//61 76//59 74//57 72//55 70//53 68//51 66//49 64//47 62//45 60//43 58//41 56//39 54//37 52//35 50//33 48//31 46//29 44//27 42//25 40//23 38//21 36//19 34//17 32//15 30//13 28//11 26//9 24//7 22//5
f 79//64 80//63 18//2 17//1
f 77//62 78//61 80//63 79//64
f 17//1 19//4 21//6 23//8 25//10 27//12 29//14 31//16 33//18 35//20 37//22 39//24 41//26 43//28 45//30 47//32 49//34 51//36 53//38 55//40 57//42 59//44 61//46 63//48 65//50 67//52 69//54 71//56 73//58 75//60 77//62 79//64
f 81//65 82//66 83//67
f 84//68 85//69 86//70 87//71 88//72 89//73 90//74 91//75 92//76 93//77 94//78 95//79 96//80 97//81 98//82 99//83 100//84 101//85 102//86 103//87 104//88 105//89 106//90 107//91 108//92 109//93 110//94 111//95 112//96 113//97 114//98 115//99 116//100 117//101
f 118//102 119//103 120//104 121//105 122//106 123//107 124//108 125//109 84//68 117//101 126//110 127//111 128//112 129//113 130//114 131//115 132//116 133//117 134//118 135//119 136//120 137//121 138//122 139//123 140//124 101//85 100//84 141//125 142//126 143//127 144//128 145//129 81//65 83//67
f 145//129 82//66 81//65
f 83//67 82//66 118//102
f 118//102 82//66 119//103
f 119//103 82//66 120//104
f 120//104 82//66 121//105
f 121//105 82//66 122//106
f 122//106 82//66 123//107
f 123//107 82//66 124//108
f 124//108 82//66 125//109
f 125//109 82//66 84//68
f 84//68 82//66 85//69
f 85//69 82//66 86//70
f 86//70 82//66 87//71
f 87//71 82//66 88//72
f 88//72 82//66 89//73
f 89//73 82//66 90//74
f 90//74 82//66 91//75
f 91//75 82//66 92//76
f 92//76 82//66 93//77
f 93//77 82//66 94//78
f 94//78 82//66 95//79
f 95//79 82//66 96//80
f 96//80 82//66 97//81
f 97//81 82//66 98//82
f 98//82 82//66 99//83
f 99//83 82//66 100//84
f 100//84 82//66 141//125
f 141//125 82//66 142//126
f 142//126 82//66 143//127
f 143//127 82//66 144//128
f 144//128 82//66 145//129
f 135//119 134//118 146//130
f 136//120 135//119 146//130
f 134//118 133//117 146//130
f 137//121 136//120 146//130
f 133//117 132//116 146//130
f 138//122 137//121 146//130
f 132//116 131//115 146//130
f 139//123 138//122 146//130
f 131//115 130//114 146//130
f 140//124 139//123 146//130
f 130//114 129//113 146//130
f 101//85 140//124 146//130
f 129//113 128//112 146//130
f 102//86 101//85 146//130
f 128//112 127//111 146//130
f 103//87 102//86 146//130
f 127//111 126//110 146//130
f 104//88 103//87 146//130
f 126//110 117//101 146//130
f 105//89 104//88 146//130
f 117//101 116//100 146//130
f 106//90 105//89 146//130
f 116//100 115//99 146//130
f 107//91 106//90 146//130
f 115//99 114//98 146//130
f 108//92 107//91 146//130
f 114//98 113//97 146//130
f 109//93 108//92 146//130
f 113//97 112//96 146//130
f 110//94 109//93 146//130
f 112//96 111//95 146//130
f 111//95 110//94 146//130
usemtl Material.003
s off
f 2//131 4//131 3//131 1//131
f 4//132 8//132 7//132 3//132
f 8//133 6//133 5//133 7//133
f 6//134 2//134 1//134 5//134
f 1//135 3//135 7//135 5//135
f 6//136 8//136 4//136 2//136
usemtl Material
f 11//137 10//137 12//137
f 9//138 10//138 11//138
f 12//139 10//139 9//139
f 9//140 11//140 12//140
usemtl Material.001
f 15//137 14//137 16//137
f 13//138 14//138 15//138
f 16//139 14//139 13//139
f 13//140 15//140 16//140
