# Blender v2.77 (sub 0) OBJ File: 'floating_islands.blend'
# www.blender.org
mtllib large_island.mtl
o Icosphere.001
v 0.060098 -20.766838 -29.642065
v 7.026738 -6.598823 -24.303082
v -3.756543 -4.537588 -19.432356
v -9.286182 -5.838384 -29.565769
v -3.128410 -4.811439 -38.354065
v 7.524621 -4.939959 -35.431652
v -3.649061 -7.847758 -19.453001
v -1.870922 -12.895694 -23.925400
v -0.748676 -17.732502 -27.194580
v 2.036651 -16.661663 -28.209892
v 4.232093 -11.859898 -26.605289
v 6.271024 -9.221032 -25.365061
v 5.093675 -8.309400 -22.439016
v 2.243683 -6.961967 -20.966858
v -1.334040 -5.264879 -18.966253
v 8.557829 -5.327653 -33.484505
v 7.959874 -5.425362 -29.559917
v 8.171604 -5.783798 -26.975136
v 2.134783 -17.665730 -31.178589
v 4.708182 -11.686247 -33.138580
v 7.404357 -8.020067 -35.449657
v -7.806367 -9.653920 -29.512171
v -5.053055 -13.390398 -29.566872
v -2.353913 -17.129496 -29.613989
v -6.101397 -5.204983 -20.598831
v -7.794323 -5.351987 -23.500427
v -9.134003 -5.707403 -26.841389
v -2.185566 -8.360830 -37.294582
v -1.325582 -13.172847 -34.651241
v -0.657057 -17.739681 -31.950991
v -9.061859 -6.037427 -32.912575
v -7.759585 -6.232242 -35.866516
v -5.922148 -5.314106 -38.186218
v -0.121677 -5.099815 -38.715637
v 3.081175 -5.457553 -38.001060
v 5.637880 -5.571177 -36.927269
v 8.368048 -2.429524 -25.344976
v 8.653532 -2.088722 -34.114250
v -2.946923 -2.013902 -17.969330
v 6.729971 -3.493082 -23.049255
v -11.200508 -2.035275 -27.469090
v -5.974979 -2.089013 -18.737387
v -5.361134 -1.793241 -39.626919
v -11.236145 -1.881245 -31.866543
v 7.245936 -1.982154 -36.384636
v -2.381662 -1.809842 -39.336201
v 5.514972 -2.115187 -39.502445
v 1.591775 -1.928457 -39.426323
v -9.136921 -1.915140 -39.499390
v -11.028803 -1.974398 -36.847343
v -9.745346 -2.272166 -23.882475
v -8.263138 -2.232765 -21.451664
v 0.701088 -2.476040 -18.873222
v 4.225222 -3.413899 -21.130894
v 8.962814 -2.279494 -28.060410
v 9.837059 -2.197464 -31.481464
v 4.771691 -8.830474 -36.506287
v 1.977123 -13.276405 -34.328667
v 0.590443 -9.161683 -36.303665
v -4.575112 -10.341164 -35.111156
v -3.466164 -13.596443 -32.204033
v -6.250144 -11.564010 -32.372097
v -6.832982 -9.365291 -25.720678
v -3.515196 -13.586652 -26.959988
v -4.532774 -8.825773 -24.027643
v 7.023169 -8.912491 -31.728951
v 7.283237 -9.070501 -28.822083
v 5.097042 -13.277068 -30.285984
v -0.213927 -9.732083 -21.022251
v 1.318138 -13.727697 -25.278973
v 3.031629 -10.064275 -22.727795
v 6.706211 2.517634 -27.433390
v 6.591800 2.679934 -32.120094
v -0.792324 2.576537 -21.469912
v 4.221333 1.659208 -23.746746
v -8.445406 3.213489 -26.441854
v -5.073494 2.649976 -22.588474
v -4.995818 5.798827 -36.591583
v -8.683765 4.003538 -33.501392
v 4.081861 3.770053 -35.521976
v -0.518246 5.150652 -36.914532
v 6.281032 3.011758 -34.169781
v -2.888723 5.388075 -37.823524
v -9.292549 3.575861 -30.275532
v -3.213726 2.694010 -21.474331
v 5.881928 1.662854 -25.461445
v 1.928329 4.467083 -36.522537
v -7.470617 5.132881 -35.827194
v -7.813212 2.798110 -24.209896
v 1.949618 2.647997 -22.380499
v 6.970801 2.675076 -29.685894
v 2.254670 6.055767 -30.104263
v 2.390488 6.635468 -32.021549
v -0.545424 5.765798 -28.039886
v 1.199418 4.463761 -28.641144
v -3.681414 7.198195 -30.181713
v -2.516445 6.477107 -28.503302
v -2.579724 8.352675 -33.796501
v -3.810011 7.764489 -32.480118
v 1.223434 6.907928 -33.467545
v -0.657231 7.772364 -34.036427
v 1.711178 6.994148 -32.728016
v -1.665057 7.769552 -34.141579
v -3.990404 6.795153 -31.494263
v -1.475937 6.519854 -28.159542
v 1.846910 4.671646 -29.288635
v 0.312289 7.506084 -33.823433
v -3.258530 8.144906 -33.164001
v -3.155102 6.587504 -29.342987
v 0.379526 5.912107 -28.217634
v 2.471838 6.052466 -31.045776
v -0.575534 3.952787 -31.584866
v 9.421911 -0.307021 -24.027058
v 9.222923 0.605402 -24.156460
v 9.770418 0.745765 -33.027206
v 10.664577 -0.175157 -33.361900
v -0.769510 -0.166141 -17.897385
v -0.684797 0.738364 -18.183443
v 4.486705 -0.344636 -22.026501
v 4.634436 -1.292958 -21.827206
v -12.509844 -0.133164 -24.382957
v -12.839384 0.815936 -24.324450
v -7.844691 0.667603 -19.101105
v -7.090281 -0.260689 -19.506523
v -8.416347 1.536379 -41.100964
v -8.028789 2.541967 -40.598263
v -12.623339 1.826081 -35.636677
v -12.771040 0.858364 -35.588623
v 6.616770 0.669973 -39.613594
v 7.091738 1.615819 -38.635956
v -0.078987 2.330721 -40.970551
v -0.547320 1.377103 -40.131027
v 8.678560 0.293248 -35.882286
v 8.697174 1.184452 -35.989353
v -3.920331 1.413198 -41.273293
v -4.085623 2.390918 -40.751701
v -12.445196 0.469193 -29.780077
v -12.334808 1.429052 -29.710016
v -4.852008 -0.185214 -17.064396
v -4.757004 0.771393 -17.195127
v 6.935916 -0.475714 -24.163162
v 6.747240 -0.252605 -24.302013
v 2.909590 1.813740 -39.454117
v 2.715909 0.928567 -39.520813
v -10.669428 2.272612 -38.593430
v -10.888571 1.277086 -38.820419
v -10.950584 0.668645 -21.514736
v -11.089771 -0.271009 -21.282959
v 5.377106 0.574503 -19.907290
v 5.444819 -0.386406 -19.698658
v 10.066790 0.633460 -29.675274
v 10.052086 -0.294188 -29.581127
vn 0.7511 0.6514 -0.1068
vn 0.7576 0.5711 -0.3161
vn 0.5537 0.8212 -0.1378
vn 0.5958 0.8030 -0.0170
vn 0.6117 0.5289 -0.5883
vn 0.2767 0.5033 -0.8185
vn 0.3731 0.7670 -0.5220
vn 0.4298 0.8049 -0.4091
vn 0.2520 0.2838 -0.9251
vn 0.0236 0.5133 -0.8579
vn 0.0441 0.7746 -0.6309
vn 0.2555 0.7518 -0.6078
vn -0.2871 0.6471 -0.7063
vn -0.6474 0.6127 -0.4533
vn -0.4940 0.8451 -0.2040
vn -0.2318 0.8283 -0.5100
vn -0.8377 0.5207 -0.1643
vn -0.8551 0.5159 0.0510
vn -0.5294 0.8418 0.1052
vn -0.5573 0.8289 0.0467
vn -0.8618 0.4429 0.2471
vn -0.6436 0.4334 0.6308
vn -0.2928 0.8847 0.3627
vn -0.4230 0.8727 0.2436
vn -0.5054 0.4095 0.7595
vn -0.1804 0.4759 0.8608
vn -0.0456 0.9001 0.4333
vn -0.2405 0.8870 0.3942
vn 0.2006 0.5990 0.7752
vn 0.7502 0.5343 0.3893
vn 0.3869 0.8620 0.3274
vn 0.1362 0.8709 0.4722
vn 0.5189 0.5483 0.6558
vn 0.8025 0.5932 0.0632
vn 0.5657 0.8226 0.0567
vn 0.3493 0.8571 0.3786
vn 0.8626 0.4678 0.1926
vn 0.6110 0.7370 0.2887
vn 0.3222 0.5458 0.7735
vn 0.2206 0.7781 0.5881
vn 0.2872 0.9579 -0.0041
vn 0.1658 0.9771 0.1329
vn 0.3128 0.9477 -0.0631
vn 0.2175 0.9730 0.0773
vn 0.2860 0.9444 0.1621
vn 0.1402 0.9900 0.0117
vn 0.2300 0.9217 0.3124
vn 0.0882 0.9832 0.1595
vn 0.2175 0.9747 0.0505
vn -0.0476 0.9745 0.2191
vn -0.1558 0.8862 0.4363
vn -0.0815 0.9452 0.3160
vn -0.0378 0.9525 0.3021
vn 0.0499 0.9963 0.0692
vn 0.1713 0.9849 0.0237
vn 0.0015 0.9969 0.0791
vn 0.2055 0.9616 0.1816
vn -0.0072 0.9794 0.2016
vn 0.4355 0.8999 0.0210
vn -0.1482 0.8706 0.4692
vn 0.1082 0.9547 0.2770
vn 0.0047 -0.9997 0.0233
vn 0.6807 -0.5447 0.4899
vn -0.2143 -0.6532 0.7262
vn 0.8484 -0.2740 0.4528
vn 0.7572 -0.5534 0.3469
vn 0.9566 -0.2601 0.1311
vn -0.8216 -0.5698 -0.0157
vn -0.3075 -0.6076 -0.7323
vn 0.6671 -0.6316 -0.3950
vn 0.8377 -0.2881 0.4639
vn -0.2951 -0.2755 0.9149
vn 0.1220 -0.2673 0.9558
vn 0.0091 -0.3640 0.9313
vn -0.9105 -0.4133 0.0129
vn -0.8672 -0.4385 0.2359
vn -0.8540 -0.5142 0.0785
vn -0.0475 -0.3152 -0.9478
vn -0.2426 -0.5047 -0.8285
vn 0.0164 -0.4093 -0.9123
vn 0.7776 -0.0917 -0.6220
vn 0.5309 -0.2718 -0.8026
vn 0.8059 -0.2895 -0.5164
vn 0.7266 0.0071 0.6870
vn -0.5320 -0.3647 0.7642
vn -0.8854 -0.4646 -0.0109
vn 0.0507 -0.3265 -0.9438
vn 0.8160 -0.3046 -0.4912
vn 0.0851 -0.1712 -0.9815
vn -0.9720 -0.2347 -0.0088
vn -0.2468 -0.2458 0.9374
vn 0.3736 0.1459 0.9160
vn 0.4123 -0.3117 -0.8560
vn 0.0299 -0.2065 -0.9780
vn 0.1196 -0.0445 -0.9918
vn 0.4764 0.0490 -0.8778
vn 0.8536 -0.0831 -0.5141
vn -0.4566 -0.4519 -0.7663
vn -0.8108 -0.4758 -0.3409
vn -0.7774 0.0321 -0.6282
vn 0.1604 -0.2814 -0.9460
vn 0.1639 -0.4118 -0.8964
vn 0.0304 -0.3459 -0.9378
vn -0.3555 0.0622 -0.9326
vn -0.7125 -0.6163 0.3355
vn -0.6410 -0.5029 0.5797
vn -0.6535 -0.4525 0.6068
vn -0.9686 -0.1340 -0.2093
vn -0.6514 -0.5810 -0.4879
vn -0.8628 -0.4792 -0.1610
vn -0.8923 -0.3998 0.2096
vn 0.3060 -0.2735 0.9119
vn 0.5986 -0.2171 0.7711
vn 0.8659 -0.0986 0.4904
vn -0.6065 -0.2871 0.7414
vn -0.7387 -0.4978 0.4544
vn -0.6409 -0.4544 0.6187
vn 0.2364 -0.0179 0.9715
vn 0.9274 -0.3456 0.1430
vn 0.9291 -0.3698 -0.0002
vn 0.9890 -0.0453 0.1404
vn 0.9522 0.0866 0.2928
vn 0.3750 -0.2931 0.8795
vn 0.5658 -0.4270 0.7054
vn 0.6383 -0.1834 0.7476
vn 0.9579 -0.0510 -0.2826
vn 0.9520 -0.3054 0.0200
vn 0.9477 -0.2550 -0.1918
vn 0.7594 -0.4008 -0.5125
vn 0.6957 -0.5650 -0.4436
vn 0.3007 -0.4731 -0.8281
vn 0.2960 -0.5104 -0.8074
vn 0.0930 -0.4470 -0.8896
vn -0.2183 -0.5378 -0.8143
vn -0.0613 -0.4693 -0.8809
vn -0.4460 -0.5785 -0.6829
vn -0.6157 -0.6181 -0.4886
vn -0.6950 -0.6301 -0.3463
vn -0.7584 -0.6502 0.0445
vn -0.8668 -0.4953 0.0570
vn -0.6693 -0.5403 0.5100
vn -0.7010 -0.5458 0.4589
vn -0.6456 -0.5629 0.5159
vn -0.3519 -0.6428 0.6804
vn -0.3830 -0.4573 0.8026
vn 0.9002 -0.4288 -0.0759
vn 0.9120 -0.4035 0.0736
vn 0.8527 -0.5224 -0.0026
vn 0.6881 -0.5835 0.4313
vn 0.2053 -0.5389 0.8169
vn 0.4124 -0.5859 0.6975
vn 0.4344 -0.5872 0.6829
usemtl Material.001
s 2
f 115//1 134//2 82//3 73//4
f 130//5 143//6 87//7 80//8
f 131//9 136//10 83//11 81//12
f 126//13 145//14 88//15 78//16
f 127//17 138//18 84//19 79//20
f 122//21 147//22 89//23 76//24
f 123//25 140//26 85//27 77//28
f 118//29 149//30 90//31 74//32
f 114//33 151//34 91//35 72//36
f 134//2 130//5 80//8 82//3
f 143//6 131//9 81//12 87//7
f 136//10 126//13 78//16 83//11
f 145//14 127//17 79//20 88//15
f 138//18 122//21 76//24 84//19
f 147//22 123//25 77//28 89//23
f 140//26 118//29 74//32 85//27
f 149//30 119//37 75//38 90//31
f 142//39 114//33 72//36 86//40
f 151//34 115//1 73//4 91//35
f 81//12 83//11 103//41 101//42
f 74//32 90//31 110//43 94//44
f 87//7 81//12 101//42 107//45
f 83//11 78//16 98//46 103//41
f 91//35 73//4 93//47 111//48
f 80//8 87//7 107//45 100//49
f 79//20 84//19 104//50 99//51
f 72//36 91//35 111//48 92//52
f 88//15 79//20 99//51 108//53
f 84//19 76//24 96//54 104//50
f 78//16 88//15 108//53 98//46
f 77//28 85//27 105//55 97//56
f 89//23 77//28 97//56 109//57
f 85//27 74//32 94//44 105//55
f 73//4 82//3 102//58 93//47
f 76//24 89//23 109//57 96//54
f 82//3 80//8 100//49 102//58
f 90//31 75//38 95//59 110//43
f 86//40 72//36 92//52 106//60
f 109//57 112//61 96//54
f 100//49 112//61 102//58
f 95//59 112//61 110//43
f 92//52 112//61 106//60
f 103//41 112//61 101//42
f 110//43 112//61 94//44
f 101//42 112//61 107//45
f 98//46 112//61 103//41
f 93//47 112//61 111//48
f 107//45 112//61 100//49
f 104//50 112//61 99//51
f 111//48 112//61 92//52
f 99//51 112//61 108//53
f 96//54 112//61 104//50
f 108//53 112//61 98//46
f 105//55 112//61 97//56
f 97//56 112//61 109//57
f 94//44 112//61 105//55
f 102//58 112//61 93//47
s 4
f 119//37 142//39 86//40 75//38
f 75//38 86//40 106//60 95//59
f 106//60 112//61 95//59
usemtl Material.002
s 1
f 1//62 10//63 9//64
f 2//65 12//66 18//67
f 1//62 9//64 24//68
f 1//62 24//68 30//69
f 1//62 30//69 19//70
f 2//65 18//67 37//71
f 3//72 15//73 39//74
f 4//75 27//76 41//77
f 5//78 33//79 43//80
f 6//81 36//82 45//83
f 2//65 37//71 40//84
f 3//72 39//74 42//85
f 4//75 41//77 44//86
f 5//78 43//80 46//87
f 6//81 45//83 38//88
f 46//87 43//80 135//89
f 44//86 41//77 137//90
f 42//85 39//74 139//91
f 40//84 37//71 141//92
f 47//93 48//94 144//95
f 45//83 129//96 133//97
f 49//98 50//99 146//100
f 48//94 46//87 132//101
f 45//83 36//82 47//93
f 36//82 35//102 47//93
f 47//93 35//102 48//94
f 35//102 34//103 48//94
f 48//94 34//103 46//87
f 34//103 5//78 46//87
f 43//80 125//104 135//89
f 51//105 52//106 148//107
f 50//99 44//86 128//108
f 43//80 33//79 49//98
f 33//79 32//109 49//98
f 49//98 32//109 50//99
f 32//109 31//110 50//99
f 50//99 31//110 44//86
f 31//110 4//75 44//86
f 41//77 121//111 137//90
f 53//112 54//113 150//114
f 52//106 42//85 124//115
f 41//77 27//76 51//105
f 27//76 26//116 51//105
f 51//105 26//116 52//106
f 26//116 25//117 52//106
f 52//106 25//117 42//85
f 25//117 3//72 42//85
f 39//74 117//118 139//91
f 55//119 56//120 152//121
f 54//113 40//84 120//122
f 39//74 15//73 53//112
f 15//73 14//123 53//112
f 53//112 14//123 54//113
f 14//123 13//124 54//113
f 54//113 13//124 40//84
f 13//124 2//65 40//84
f 37//71 113//125 141//92
f 56//120 38//88 116//126
f 37//71 18//67 55//119
f 18//67 17//127 55//119
f 55//119 17//127 56//120
f 17//127 16//128 56//120
f 56//120 16//128 38//88
f 16//128 6//81 38//88
f 21//129 36//82 6//81
f 20//130 57//131 21//129
f 19//70 58//132 20//130
f 21//129 57//131 36//82
f 57//131 35//102 36//82
f 20//130 58//132 57//131
f 58//132 59//133 57//131
f 57//131 59//133 35//102
f 59//133 34//103 35//102
f 19//70 30//69 58//132
f 30//69 29//134 58//132
f 58//132 29//134 59//133
f 29//134 28//135 59//133
f 59//133 28//135 34//103
f 28//135 5//78 34//103
f 28//135 33//79 5//78
f 29//134 60//136 28//135
f 30//69 61//137 29//134
f 28//135 60//136 33//79
f 60//136 32//109 33//79
f 29//134 61//137 60//136
f 61//137 62//138 60//136
f 60//136 62//138 32//109
f 62//138 31//110 32//109
f 30//69 24//68 61//137
f 24//68 23//139 61//137
f 61//137 23//139 62//138
f 23//139 22//140 62//138
f 62//138 22//140 31//110
f 22//140 4//75 31//110
f 22//140 27//76 4//75
f 23//139 63//141 22//140
f 24//68 64//142 23//139
f 22//140 63//141 27//76
f 63//141 26//116 27//76
f 23//139 64//142 63//141
f 64//142 65//143 63//141
f 63//141 65//143 26//116
f 65//143 25//117 26//116
f 24//68 9//64 64//142
f 9//64 8//144 64//142
f 64//142 8//144 65//143
f 8//144 7//145 65//143
f 65//143 7//145 25//117
f 7//145 3//72 25//117
f 16//128 21//129 6//81
f 17//127 66//146 16//128
f 18//67 67//147 17//127
f 16//128 66//146 21//129
f 66//146 20//130 21//129
f 17//127 67//147 66//146
f 67//147 68//148 66//146
f 66//146 68//148 20//130
f 68//148 19//70 20//130
f 18//67 12//66 67//147
f 12//66 11//149 67//147
f 67//147 11//149 68//148
f 11//149 10//63 68//148
f 68//148 10//63 19//70
f 10//63 1//62 19//70
f 7//145 15//73 3//72
f 8//144 69//150 7//145
f 9//64 70//151 8//144
f 7//145 69//150 15//73
f 69//150 14//123 15//73
f 8//144 70//151 69//150
f 70//151 71//152 69//150
f 69//150 71//152 14//123
f 71//152 13//124 14//123
f 9//64 10//63 70//151
f 10//63 11//149 70//151
f 70//151 11//149 71//152
f 11//149 12//66 71//152
f 71//152 12//66 13//124
f 12//66 2//65 13//124
f 152//121 56//120 116//126
f 148//107 52//106 124//115
f 44//86 137//90 128//108
f 38//88 133//97 116//126
f 38//88 45//83 133//97
f 45//83 47//93 129//96
f 43//80 49//98 125//104
f 41//77 51//105 121//111
f 39//74 53//112 117//118
f 146//100 50//99 128//108
f 129//96 47//93 144//95
f 125//104 49//98 146//100
f 46//87 135//89 132//101
f 121//111 51//105 148//107
f 40//84 141//92 120//122
f 117//118 53//112 150//114
f 113//125 55//119 152//121
f 144//95 48//94 132//101
f 150//114 54//113 120//122
f 42//85 139//91 124//115
f 116//126 133//97 134//2 115//1
f 133//97 129//96 130//5 134//2
f 132//101 135//89 136//10 131//9
f 135//89 125//104 126//13 136//10
f 128//108 137//90 138//18 127//17
f 137//90 121//111 122//21 138//18
f 124//115 139//91 140//26 123//25
f 139//91 117//118 118//29 140//26
f 120//122 141//92 142//39 119//37
f 141//92 113//125 114//33 142//39
f 144//95 132//101 131//9 143//6
f 129//96 144//95 143//6 130//5
f 146//100 128//108 127//17 145//14
f 125//104 146//100 145//14 126//13
f 148//107 124//115 123//25 147//22
f 121//111 148//107 147//22 122//21
f 150//114 120//122 119//37 149//30
f 117//118 150//114 149//30 118//29
f 152//121 116//126 115//1 151//34
f 113//125 152//121 151//34 114//33
f 37//71 55//119 113//125
