# Blender v2.76 (sub 0) OBJ File: 'Card.blend'
# www.blender.org
o Plane
v -0.500000 0.000000 -0.874687
v -0.500000 0.000000 0.874687
v 0.500000 0.000000 -0.874687
v 0.500000 0.000000 0.874687
v -0.500000 -0.002154 -0.874687
v -0.500000 -0.002154 0.874687
v 0.500000 -0.002154 -0.874687
v 0.500000 -0.002154 0.874687
vt 0.500000 0.939114
vt 0.500000 0.060886
vt 0.999717 0.060886
vt 0.999717 0.939114
vt 0.499717 0.939114
vt 0.000000 0.939114
vt 0.000000 0.060886
vt 0.499717 0.060886
vn 0.000000 1.000000 0.000000
vn 0.000000 -1.000000 0.000000
s off
f 1/1/1 2/2/1 4/3/1 3/4/1
f 5/5/2 7/6/2 8/7/2 6/8/2
